{
    "asset" : {
        "generator" : "Khronos glTF Blender I/O v3.3.27",
        "version" : "2.0"
    },
    "extensionsUsed" : [
        "KHR_materials_specular",
        "KHR_materials_ior"
    ],
    "scene" : 0,
    "scenes" : [
        {
            "name" : "Scene",
            "nodes" : [
                2,
                3,
                4
            ]
        }
    ],
    "nodes" : [
        {
            "name" : "Bone",
            "rotation" : [
                -3.5527141023169746e-15,
                -3.308722844642563e-24,
                -3.308722844642563e-24,
                1
            ],
            "scale" : [
                0.9999999403953552,
                0.9999999403953552,
                0.9999999403953552
            ],
            "translation" : [
                9.3132174194821e-10,
                5.937863534200005e-10,
                -2.3564814455312444e-07
            ]
        },
        {
            "name" : "Bone.001",
            "rotation" : [
                -0.7070916891098022,
                0.00511939637362957,
                0.7070847749710083,
                0.005119427107274532
            ],
            "scale" : [
                0.9999999403953552,
                0.9999998807907104,
                0.9999998807907104
            ],
            "translation" : [
                9.3132174194821e-10,
                5.937863534200005e-10,
                -2.3564814455312444e-07
            ]
        },
        {
            "mesh" : 0,
            "name" : "can_v2_tip_higher",
            "skin" : 0
        },
        {
            "mesh" : 1,
            "name" : "can_v2.001"
        },
        {
            "children" : [
                0,
                1
            ],
            "name" : "Armature",
            "rotation" : [
                0.7071067094802856,
                0,
                0,
                0.7071068286895752
            ],
            "scale" : [
                0.020516609773039818,
                0.020516609773039818,
                0.020516609773039818
            ],
            "translation" : [
                0.00019016643636859953,
                0.0771000012755394,
                0.0007528687128797174
            ]
        }
    ],
    "animations" : [
        {
            "channels" : [
                {
                    "sampler" : 0,
                    "target" : {
                        "node" : 3,
                        "path" : "translation"
                    }
                },
                {
                    "sampler" : 1,
                    "target" : {
                        "node" : 3,
                        "path" : "rotation"
                    }
                },
                {
                    "sampler" : 2,
                    "target" : {
                        "node" : 3,
                        "path" : "scale"
                    }
                }
            ],
            "name" : "can_v2.001",
            "samplers" : [
                {
                    "input" : 12,
                    "interpolation" : "LINEAR",
                    "output" : 13
                },
                {
                    "input" : 12,
                    "interpolation" : "LINEAR",
                    "output" : 14
                },
                {
                    "input" : 12,
                    "interpolation" : "LINEAR",
                    "output" : 15
                }
            ]
        },
        {
            "channels" : [
                {
                    "sampler" : 0,
                    "target" : {
                        "node" : 0,
                        "path" : "translation"
                    }
                },
                {
                    "sampler" : 1,
                    "target" : {
                        "node" : 0,
                        "path" : "rotation"
                    }
                },
                {
                    "sampler" : 2,
                    "target" : {
                        "node" : 0,
                        "path" : "scale"
                    }
                },
                {
                    "sampler" : 3,
                    "target" : {
                        "node" : 1,
                        "path" : "translation"
                    }
                },
                {
                    "sampler" : 4,
                    "target" : {
                        "node" : 1,
                        "path" : "rotation"
                    }
                },
                {
                    "sampler" : 5,
                    "target" : {
                        "node" : 1,
                        "path" : "scale"
                    }
                }
            ],
            "name" : "ArmatureAction",
            "samplers" : [
                {
                    "input" : 12,
                    "interpolation" : "LINEAR",
                    "output" : 16
                },
                {
                    "input" : 12,
                    "interpolation" : "LINEAR",
                    "output" : 17
                },
                {
                    "input" : 12,
                    "interpolation" : "LINEAR",
                    "output" : 18
                },
                {
                    "input" : 12,
                    "interpolation" : "LINEAR",
                    "output" : 19
                },
                {
                    "input" : 12,
                    "interpolation" : "LINEAR",
                    "output" : 20
                },
                {
                    "input" : 12,
                    "interpolation" : "LINEAR",
                    "output" : 21
                }
            ]
        }
    ],
    "materials" : [
        {
            "doubleSided" : true,
            "extensions" : {
                "KHR_materials_specular" : {
                    "specularColorFactor" : [
                        2.371357614441398,
                        2.371357614441398,
                        2.371357614441398
                    ]
                },
                "KHR_materials_ior" : {
                    "ior" : 1.4500000476837158
                }
            },
            "name" : "MANA_pamplemousse_2048",
            "normalTexture" : {
                "index" : 0,
                "scale" : 0.8999999761581421
            },
            "pbrMetallicRoughness" : {
                "baseColorTexture" : {
                    "index" : 1
                },
                "metallicRoughnessTexture" : {
                    "index" : 2
                }
            }
        }
    ],
    "meshes" : [
        {
            "name" : "Cylinder.003",
            "primitives" : [
                {
                    "attributes" : {
                        "POSITION" : 0,
                        "NORMAL" : 1,
                        "TEXCOORD_0" : 2,
                        "COLOR_0" : 3,
                        "JOINTS_0" : 4,
                        "WEIGHTS_0" : 5
                    },
                    "indices" : 6,
                    "material" : 0
                }
            ]
        },
        {
            "name" : "Cylinder.002",
            "primitives" : [
                {
                    "attributes" : {
                        "POSITION" : 8,
                        "NORMAL" : 9,
                        "TEXCOORD_0" : 10
                    },
                    "indices" : 11,
                    "material" : 0
                }
            ]
        }
    ],
    "textures" : [
        {
            "sampler" : 0,
            "source" : 0
        },
        {
            "sampler" : 0,
            "source" : 1
        },
        {
            "sampler" : 0,
            "source" : 2
        }
    ],
    "images" : [
        {
            "mimeType" : "image/png",
            "name" : "MANA_canette_top_normal copy.exr",
            "uri" : "MANA_canette_top_normal%20copy_exr.png"
        },
        {
            "mimeType" : "image/png",
            "name" : "MANA_canette_pamp_color_for_mat_v2",
            "uri" : "MANA_canette_pamp_color_for_mat_v2.png"
        },
        {
            "mimeType" : "image/png",
            "name" : "MANA_canette_pamp_roughness_&_metal_maps",
            "uri" : "MANA_canette_pamp_roughness__metal_maps.png"
        }
    ],
    "skins" : [
        {
            "inverseBindMatrices" : 7,
            "joints" : [
                0,
                1
            ],
            "name" : "Armature"
        }
    ],
    "accessors" : [
        {
            "bufferView" : 0,
            "componentType" : 5126,
            "count" : 3760,
            "max" : [
                0.014705868437886238,
                0.07883197069168091,
                0.021052172407507896
            ],
            "min" : [
                -0.014562668278813362,
                0.07710615545511246,
                -0.02281961403787136
            ],
            "type" : "VEC3"
        },
        {
            "bufferView" : 1,
            "componentType" : 5126,
            "count" : 3760,
            "type" : "VEC3"
        },
        {
            "bufferView" : 2,
            "componentType" : 5126,
            "count" : 3760,
            "type" : "VEC2"
        },
        {
            "bufferView" : 3,
            "componentType" : 5123,
            "count" : 3760,
            "normalized" : true,
            "type" : "VEC4"
        },
        {
            "bufferView" : 4,
            "componentType" : 5121,
            "count" : 3760,
            "type" : "VEC4"
        },
        {
            "bufferView" : 5,
            "componentType" : 5126,
            "count" : 3760,
            "type" : "VEC4"
        },
        {
            "bufferView" : 6,
            "componentType" : 5123,
            "count" : 17364,
            "type" : "SCALAR"
        },
        {
            "bufferView" : 7,
            "componentType" : 5126,
            "count" : 2,
            "type" : "MAT4"
        },
        {
            "bufferView" : 8,
            "componentType" : 5126,
            "count" : 10230,
            "max" : [
                0.03016514889895916,
                0.07958496361970901,
                0.03016514889895916
            ],
            "min" : [
                -0.03016514889895916,
                -0.07681377977132797,
                -0.03016514889895916
            ],
            "type" : "VEC3"
        },
        {
            "bufferView" : 9,
            "componentType" : 5126,
            "count" : 10230,
            "type" : "VEC3"
        },
        {
            "bufferView" : 10,
            "componentType" : 5126,
            "count" : 10230,
            "type" : "VEC2"
        },
        {
            "bufferView" : 11,
            "componentType" : 5123,
            "count" : 50670,
            "type" : "SCALAR"
        },
        {
            "bufferView" : 12,
            "componentType" : 5126,
            "count" : 250,
            "max" : [
                10.416666666666666
            ],
            "min" : [
                0.041666666666666664
            ],
            "type" : "SCALAR"
        },
        {
            "bufferView" : 13,
            "componentType" : 5126,
            "count" : 250,
            "type" : "VEC3"
        },
        {
            "bufferView" : 14,
            "componentType" : 5126,
            "count" : 250,
            "type" : "VEC4"
        },
        {
            "bufferView" : 15,
            "componentType" : 5126,
            "count" : 250,
            "type" : "VEC3"
        },
        {
            "bufferView" : 16,
            "componentType" : 5126,
            "count" : 250,
            "type" : "VEC3"
        },
        {
            "bufferView" : 17,
            "componentType" : 5126,
            "count" : 250,
            "type" : "VEC4"
        },
        {
            "bufferView" : 18,
            "componentType" : 5126,
            "count" : 250,
            "type" : "VEC3"
        },
        {
            "bufferView" : 19,
            "componentType" : 5126,
            "count" : 250,
            "type" : "VEC3"
        },
        {
            "bufferView" : 20,
            "componentType" : 5126,
            "count" : 250,
            "type" : "VEC4"
        },
        {
            "bufferView" : 21,
            "componentType" : 5126,
            "count" : 250,
            "type" : "VEC3"
        }
    ],
    "bufferViews" : [
        {
            "buffer" : 0,
            "byteLength" : 45120,
            "byteOffset" : 0,
            "target" : 34962
        },
        {
            "buffer" : 0,
            "byteLength" : 45120,
            "byteOffset" : 45120,
            "target" : 34962
        },
        {
            "buffer" : 0,
            "byteLength" : 30080,
            "byteOffset" : 90240,
            "target" : 34962
        },
        {
            "buffer" : 0,
            "byteLength" : 30080,
            "byteOffset" : 120320,
            "target" : 34962
        },
        {
            "buffer" : 0,
            "byteLength" : 15040,
            "byteOffset" : 150400,
            "target" : 34962
        },
        {
            "buffer" : 0,
            "byteLength" : 60160,
            "byteOffset" : 165440,
            "target" : 34962
        },
        {
            "buffer" : 0,
            "byteLength" : 34728,
            "byteOffset" : 225600,
            "target" : 34963
        },
        {
            "buffer" : 0,
            "byteLength" : 128,
            "byteOffset" : 260328
        },
        {
            "buffer" : 0,
            "byteLength" : 122760,
            "byteOffset" : 260456,
            "target" : 34962
        },
        {
            "buffer" : 0,
            "byteLength" : 122760,
            "byteOffset" : 383216,
            "target" : 34962
        },
        {
            "buffer" : 0,
            "byteLength" : 81840,
            "byteOffset" : 505976,
            "target" : 34962
        },
        {
            "buffer" : 0,
            "byteLength" : 101340,
            "byteOffset" : 587816,
            "target" : 34963
        },
        {
            "buffer" : 0,
            "byteLength" : 1000,
            "byteOffset" : 689156
        },
        {
            "buffer" : 0,
            "byteLength" : 3000,
            "byteOffset" : 690156
        },
        {
            "buffer" : 0,
            "byteLength" : 4000,
            "byteOffset" : 693156
        },
        {
            "buffer" : 0,
            "byteLength" : 3000,
            "byteOffset" : 697156
        },
        {
            "buffer" : 0,
            "byteLength" : 3000,
            "byteOffset" : 700156
        },
        {
            "buffer" : 0,
            "byteLength" : 4000,
            "byteOffset" : 703156
        },
        {
            "buffer" : 0,
            "byteLength" : 3000,
            "byteOffset" : 707156
        },
        {
            "buffer" : 0,
            "byteLength" : 3000,
            "byteOffset" : 710156
        },
        {
            "buffer" : 0,
            "byteLength" : 4000,
            "byteOffset" : 713156
        },
        {
            "buffer" : 0,
            "byteLength" : 3000,
            "byteOffset" : 717156
        }
    ],
    "samplers" : [
        {
            "magFilter" : 9729,
            "minFilter" : 9987
        }
    ],
    "buffers" : [
        {
            "byteLength" : 720156,
            "uri" : "MANA_canettes__v5_WEBGL.bin"
        }
    ]
}
